<mxfile host="app.diagrams.net" modified="2022-09-24T14:11:07.088Z" agent="5.0 (Macintosh)" etag="jlHJNNvq5jqIBADey7W6" version="20.3.6" type="github">
  <diagram id="WJcpJdLpVQAO5bj-L5qH" name="Page-1">
    <mxGraphModel dx="946" dy="526" grid="1" gridSize="10" guides="1" tooltips="1" connect="1" arrows="1" fold="1" page="1" pageScale="1" pageWidth="850" pageHeight="1100" math="0" shadow="0">
      <root>
        <mxCell id="0" />
        <mxCell id="1" parent="0" />
        <mxCell id="1aiNwclXw_bC3SveTIxH-3" value="Structured Data" style="rhombus;whiteSpace=wrap;html=1;fillColor=#dae8fc;strokeColor=#6c8ebf;" vertex="1" parent="1">
          <mxGeometry x="400" y="70" width="100" height="90" as="geometry" />
        </mxCell>
        <mxCell id="1aiNwclXw_bC3SveTIxH-4" value="&lt;div&gt;SQL/RDMS &lt;br&gt;&lt;/div&gt;&lt;div&gt;(Aurora, Postgres, MySQL etc.)&lt;br&gt;&lt;/div&gt;" style="rounded=1;whiteSpace=wrap;html=1;fillColor=#ffe6cc;strokeColor=#d79b00;" vertex="1" parent="1">
          <mxGeometry x="160" y="240" width="120" height="60" as="geometry" />
        </mxCell>
        <mxCell id="1aiNwclXw_bC3SveTIxH-7" value="" style="endArrow=classic;html=1;rounded=0;exitX=0;exitY=0.5;exitDx=0;exitDy=0;entryX=0.5;entryY=0;entryDx=0;entryDy=0;edgeStyle=orthogonalEdgeStyle;" edge="1" parent="1" source="1aiNwclXw_bC3SveTIxH-3" target="1aiNwclXw_bC3SveTIxH-4">
          <mxGeometry width="50" height="50" relative="1" as="geometry">
            <mxPoint x="400" y="340" as="sourcePoint" />
            <mxPoint x="450" y="290" as="targetPoint" />
          </mxGeometry>
        </mxCell>
        <mxCell id="1aiNwclXw_bC3SveTIxH-8" value="ACID guarantee" style="text;html=1;strokeColor=none;fillColor=none;align=center;verticalAlign=middle;whiteSpace=wrap;rounded=0;" vertex="1" parent="1">
          <mxGeometry x="220" y="150" width="60" height="30" as="geometry" />
        </mxCell>
        <mxCell id="1aiNwclXw_bC3SveTIxH-9" value="Yes" style="text;html=1;strokeColor=none;fillColor=none;align=center;verticalAlign=middle;whiteSpace=wrap;rounded=0;" vertex="1" parent="1">
          <mxGeometry x="330" y="90" width="60" height="30" as="geometry" />
        </mxCell>
        <mxCell id="1aiNwclXw_bC3SveTIxH-10" value="&lt;div&gt;Document DB&lt;/div&gt;&lt;div&gt;(MongoDB, CouchBase, ElasticSearch, DynamoDB )&lt;br&gt;&lt;/div&gt;" style="rounded=1;whiteSpace=wrap;html=1;fillColor=#fff2cc;strokeColor=#d6b656;" vertex="1" parent="1">
          <mxGeometry x="553" y="430" width="135" height="70" as="geometry" />
        </mxCell>
        <mxCell id="1aiNwclXw_bC3SveTIxH-11" value="" style="endArrow=classic;html=1;rounded=0;exitX=1;exitY=0.5;exitDx=0;exitDy=0;edgeStyle=orthogonalEdgeStyle;entryX=0.5;entryY=0;entryDx=0;entryDy=0;" edge="1" parent="1" source="1aiNwclXw_bC3SveTIxH-3" target="1aiNwclXw_bC3SveTIxH-14">
          <mxGeometry width="50" height="50" relative="1" as="geometry">
            <mxPoint x="530" y="340" as="sourcePoint" />
            <mxPoint x="620" y="230" as="targetPoint" />
          </mxGeometry>
        </mxCell>
        <mxCell id="1aiNwclXw_bC3SveTIxH-14" value="&lt;div&gt;Various Data Types&lt;/div&gt;&lt;div&gt;&amp;amp; Lot of Queries&lt;/div&gt;" style="rhombus;whiteSpace=wrap;html=1;fillColor=#e1d5e7;strokeColor=#9673a6;" vertex="1" parent="1">
          <mxGeometry x="555" y="230" width="130" height="110" as="geometry" />
        </mxCell>
        <mxCell id="1aiNwclXw_bC3SveTIxH-15" value="" style="endArrow=classic;html=1;rounded=0;exitX=0.5;exitY=1;exitDx=0;exitDy=0;entryX=0.5;entryY=0;entryDx=0;entryDy=0;" edge="1" parent="1" source="1aiNwclXw_bC3SveTIxH-14" target="1aiNwclXw_bC3SveTIxH-10">
          <mxGeometry width="50" height="50" relative="1" as="geometry">
            <mxPoint x="430" y="340" as="sourcePoint" />
            <mxPoint x="623" y="440" as="targetPoint" />
          </mxGeometry>
        </mxCell>
        <mxCell id="1aiNwclXw_bC3SveTIxH-16" value="Yes" style="text;html=1;strokeColor=none;fillColor=none;align=center;verticalAlign=middle;whiteSpace=wrap;rounded=0;" vertex="1" parent="1">
          <mxGeometry x="610" y="350" width="60" height="30" as="geometry" />
        </mxCell>
        <mxCell id="1aiNwclXw_bC3SveTIxH-17" value="&lt;div&gt;Ever Increasing Data&lt;/div&gt;&lt;div&gt;&amp;amp; Finite Queries&lt;br&gt; &lt;/div&gt;" style="rhombus;whiteSpace=wrap;html=1;fillColor=#d5e8d4;strokeColor=#82b366;" vertex="1" parent="1">
          <mxGeometry x="770" y="230" width="130" height="110" as="geometry" />
        </mxCell>
        <mxCell id="1aiNwclXw_bC3SveTIxH-18" value="UCs - Product Catalog etc." style="text;whiteSpace=wrap;html=1;" vertex="1" parent="1">
          <mxGeometry x="560" y="510" width="140" height="40" as="geometry" />
        </mxCell>
        <mxCell id="1aiNwclXw_bC3SveTIxH-19" value="UCs - Financial Transactions etc. " style="text;whiteSpace=wrap;html=1;" vertex="1" parent="1">
          <mxGeometry x="170" y="310" width="150" height="40" as="geometry" />
        </mxCell>
        <mxCell id="1aiNwclXw_bC3SveTIxH-20" value="" style="endArrow=classic;html=1;rounded=0;exitX=1;exitY=0.5;exitDx=0;exitDy=0;entryX=0.5;entryY=0;entryDx=0;entryDy=0;edgeStyle=orthogonalEdgeStyle;" edge="1" parent="1" source="1aiNwclXw_bC3SveTIxH-3" target="1aiNwclXw_bC3SveTIxH-17">
          <mxGeometry width="50" height="50" relative="1" as="geometry">
            <mxPoint x="430" y="390" as="sourcePoint" />
            <mxPoint x="480" y="340" as="targetPoint" />
          </mxGeometry>
        </mxCell>
        <mxCell id="1aiNwclXw_bC3SveTIxH-21" value="&lt;div&gt;Column-Wide DB&lt;br&gt;&lt;/div&gt;&lt;div&gt;(Casandra, HBase)&lt;br&gt;&lt;/div&gt;" style="rounded=1;whiteSpace=wrap;html=1;fillColor=#f8cecc;strokeColor=#b85450;" vertex="1" parent="1">
          <mxGeometry x="767.5" y="430" width="135" height="70" as="geometry" />
        </mxCell>
        <mxCell id="1aiNwclXw_bC3SveTIxH-22" value="" style="endArrow=classic;html=1;rounded=0;exitX=0.5;exitY=1;exitDx=0;exitDy=0;entryX=0.5;entryY=0;entryDx=0;entryDy=0;" edge="1" parent="1" source="1aiNwclXw_bC3SveTIxH-17" target="1aiNwclXw_bC3SveTIxH-21">
          <mxGeometry width="50" height="50" relative="1" as="geometry">
            <mxPoint x="430" y="390" as="sourcePoint" />
            <mxPoint x="480" y="340" as="targetPoint" />
          </mxGeometry>
        </mxCell>
        <mxCell id="1aiNwclXw_bC3SveTIxH-23" value="Yes" style="text;html=1;strokeColor=none;fillColor=none;align=center;verticalAlign=middle;whiteSpace=wrap;rounded=0;" vertex="1" parent="1">
          <mxGeometry x="830" y="350" width="60" height="30" as="geometry" />
        </mxCell>
        <mxCell id="1aiNwclXw_bC3SveTIxH-24" value="No" style="text;html=1;strokeColor=none;fillColor=none;align=center;verticalAlign=middle;whiteSpace=wrap;rounded=0;" vertex="1" parent="1">
          <mxGeometry x="510" y="90" width="60" height="30" as="geometry" />
        </mxCell>
        <mxCell id="1aiNwclXw_bC3SveTIxH-25" value="UCs - Driver Location etc." style="text;whiteSpace=wrap;html=1;" vertex="1" parent="1">
          <mxGeometry x="780" y="510" width="140" height="40" as="geometry" />
        </mxCell>
      </root>
    </mxGraphModel>
  </diagram>
</mxfile>
